<svg id="visual" viewBox="0 0 900 450" width="900" height="450" xmlns="http://www.w3.org/2000/svg" xmlns:xlink="http://www.w3.org/1999/xlink" version="1.1"><rect x="0" y="0" width="900" height="450" fill="#3d3d61"></rect><defs><linearGradient id="grad1_0" x1="50%" y1="0%" x2="100%" y2="100%"><stop offset="10%" stop-color="#3d3d61" stop-opacity="1"></stop><stop offset="90%" stop-color="#3d3d61" stop-opacity="1"></stop></linearGradient></defs><defs><linearGradient id="grad2_0" x1="0%" y1="0%" x2="50%" y2="100%"><stop offset="10%" stop-color="#3d3d61" stop-opacity="1"></stop><stop offset="90%" stop-color="#3d3d61" stop-opacity="1"></stop></linearGradient></defs><g transform="translate(900, 0)"><path d="M0 225C-24.4 210.5 -48.8 196 -77.7 187.5C-106.6 179.1 -140.1 176.8 -159.1 159.1C-178.1 141.4 -182.7 108.3 -191.2 79.2C-199.8 50.1 -212.4 25.1 -225 0L0 0Z" fill="#9A8C98"></path></g><g transform="translate(0, 450)"><path d="M0 -225C26.1 -214.5 52.2 -204 80.7 -194.9C109.3 -185.9 140.2 -178.4 159.1 -159.1C178 -139.8 185 -108.8 194 -80.4C203 -51.9 214 -25.9 225 0L0 0Z" fill="#9A8C98"></path></g></svg>